<svg xmlns="http://www.w3.org/2000/svg"  viewBox="0 0 32 32" width="20px" height="20px" baseProfile="basic"><path fill="#e83815" d="M16,20.5l8-5.815V26h4c1.1,0,2-0.899,2-1.997V9.717c0-3.421-2.993-4.69-5.5-2.922	C22.372,8.296,16,13,16,13S9.628,8.296,7.5,6.795C4.993,5.028,2,6.296,2,9.717v14.286C2,25.101,2.9,26,4,26h4V14.685L16,20.5z"/><path fill="#d99d26" d="M30,9.72v1.227l-6.5,4.809V7.51l1-0.71C27.01,5.03,30,6.3,30,9.72z"/><path fill="#449bb3" d="M2,10.947l6,4.439V26H4c-1.105,0-2-0.895-2-2V10.947z"/><path fill="#87a648" d="M30,10.947l-6,4.439V26h4c1.105,0,2-0.895,2-2V10.947z"/><rect width="1" height="7.451" x="4.515" y="9.43" fill="#fff" transform="rotate(-54.02 5.014 13.156)"/><rect width="7.451" height="1" x="23.259" y="12.656" fill="#fff" transform="rotate(-36.021 26.983 13.155)"/><rect width="1" height="7.656" x="23" y="7.51" fill="#fff"/><rect width="1" height="7.656" x="8" y="7.51" fill="#fff"/><path fill="#302529" d="M28,27h-5V16.647l-7,5.089l-7-5.089V27H4c-1.654,0-3-1.345-3-2.997V9.717	c0-1.955,0.837-3.511,2.298-4.269c1.454-0.752,3.239-0.556,4.778,0.529c1.729,1.22,6.289,4.574,7.924,5.78	c1.635-1.206,6.195-4.561,7.924-5.78c1.537-1.085,3.325-1.281,4.778-0.529C30.163,6.206,31,7.762,31,9.717v14.286	C31,25.655,29.654,27,28,27z M25,25h3c0.551,0,1-0.447,1-0.997V9.717c0-1.183-0.444-2.091-1.218-2.492	c-0.777-0.404-1.789-0.257-2.706,0.388c-2.095,1.478-8.418,6.146-8.482,6.192L16,14.243l-0.594-0.438	c-0.064-0.047-6.388-4.715-8.482-6.192C6.007,6.967,4.996,6.819,4.218,7.225C3.444,7.626,3,8.534,3,9.717v14.286	C3,24.553,3.449,25,4,25h3V13.979l1-0.531l8,5.815l8-5.815l1,0.531V25z"/></svg>